<svg width="1920" height="1080" viewBox="0 0 1920 1080" xmlns="http://www.w3.org/2000/svg"><rect width="1920" height="1080" fill="#24e5ff"/><path d="M 0,1080 C 0,1080 0,154 0,154 C 92.01693667157585,140.21833578792342 184.0338733431517,126.43667157584683 279,112 C 373.9661266568483,97.56332842415317 471.8814432989691,82.47164948453607 555,108 C 638.1185567010309,133.52835051546393 706.4403534609719,199.67673048600886 805,206 C 903.5596465390281,212.32326951399114 1032.357142857143,158.82142857142856 1125,139 C 1217.642857142857,119.17857142857144 1274.1310751104565,133.0375552282769 1364,151 C 1453.8689248895435,168.9624447717231 1577.1185567010307,191.0283505154639 1673,191 C 1768.8814432989693,190.9716494845361 1837.3946980854198,168.84904270986746 1874,159 C 1910.6053019145802,149.15095729013254 1915.30265095729,151.57547864506626 1920,154 C 1920,154 1920,1080 1920,1080 Z" fill="#0f2f33" opacity="0.08571428571428572"/><path d="M 0,1080 C 0,1080 0,308 0,308 C 79.6264727540501,309.73122238586154 159.2529455081002,311.46244477172314 244,300 C 328.7470544918998,288.53755522827686 418.6146907216495,263.8814432989691 507,259 C 595.3853092783505,254.1185567010309 682.2882916053019,269.01178203240056 799,265 C 915.7117083946981,260.98821796759944 1062.232142857143,238.07142857142856 1144,257 C 1225.767857142857,275.92857142857144 1242.7831369661267,336.7025036818851 1321,340 C 1399.2168630338733,343.2974963181149 1538.6353092783504,289.1185567010309 1651,272 C 1763.3646907216496,254.8814432989691 1848.6756259204715,274.8232695139912 1889,287 C 1929.3243740795285,299.1767304860088 1924.6621870397644,303.58836524300443 1920,308 C 1920,308 1920,1080 1920,1080 Z" fill="#0f2f33" opacity="0.17142857142857143"/><path d="M 0,1080 C 0,1080 0,462 0,462 C 86.16936671575849,434.54491899852724 172.33873343151697,407.08983799705453 266,416 C 359.66126656848303,424.91016200294547 460.81443298969066,470.1855670103092 564,470 C 667.1855670103093,469.8144329896908 772.4035346097202,424.16789396170844 851,412 C 929.5964653902798,399.83210603829156 981.5714285714287,421.14285714285717 1067,443 C 1152.4285714285713,464.85714285714283 1271.3107511045655,487.260677466863 1376,484 C 1480.6892488954345,480.739322533137 1571.1855670103093,451.8144329896907 1663,443 C 1754.8144329896907,434.1855670103093 1847.9469808541974,445.4815905743741 1891,452 C 1934.0530191458026,458.5184094256259 1927.0265095729014,460.25920471281296 1920,462 C 1920,462 1920,1080 1920,1080 Z" fill="#0f2f33" opacity="0.2571428571428571"/><path d="M 0,1080 C 0,1080 0,617 0,617 C 99.95894698085422,623.7800073637702 199.91789396170844,630.5600147275405 279,630 C 358.08210603829156,629.4399852724595 416.28737113402053,621.5399484536083 511,631 C 605.7126288659795,640.4600515463917 736.9326215022091,667.2801914580265 831,657 C 925.0673784977909,646.7198085419735 981.9821428571427,599.3392857142858 1075,589 C 1168.0178571428573,578.6607142857142 1297.1388070692196,605.3626656848306 1404,611 C 1510.8611929307804,616.6373343151694 1595.4626288659795,601.2100515463918 1687,594 C 1778.5373711340205,586.7899484536082 1877.010677466863,587.7971281296024 1917,593 C 1956.989322533137,598.2028718703976 1938.4946612665685,607.6014359351989 1920,617 C 1920,617 1920,1080 1920,1080 Z" fill="#0f2f33" opacity="0.34285714285714286"/><path d="M 0,1080 C 0,1080 0,771 0,771 C 102.06277614138438,758.2892120765832 204.12555228276875,745.5784241531663 297,758 C 389.87444771723125,770.4215758468337 473.56056701030934,807.9755154639176 545,803 C 616.4394329896907,798.0244845360824 675.6321796759939,750.5195139911635 783,746 C 890.3678203240061,741.4804860088365 1045.9107142857144,779.9464285714286 1144,802 C 1242.0892857142856,824.0535714285714 1282.7249631811485,829.6947717231221 1366,808 C 1449.2750368188515,786.3052282768779 1575.1894329896909,737.2744845360826 1687,744 C 1798.8105670103091,750.7255154639174 1896.5173048600884,813.2072901325479 1933,827 C 1969.4826951399116,840.7927098674521 1944.741347569956,805.8963549337261 1920,771 C 1920,771 1920,1080 1920,1080 Z" fill="#0f2f33" opacity="0.4285714285714286"/><path d="M 0,1080 C 0,1080 0,925 0,925 C 67.58689248895436,950.4803019145802 135.17378497790872,975.9606038291605 236,982 C 336.8262150220913,988.0393961708395 470.8917525773196,974.6378865979381 566,975 C 661.1082474226804,975.3621134020619 717.259204712813,989.4878497790869 798,973 C 878.740795287187,956.5121502209131 984.0714285714287,909.4107142857142 1077,896 C 1169.9285714285713,882.5892857142858 1250.4550810014728,902.869293078056 1332,896 C 1413.5449189985272,889.130706921944 1496.1082474226805,855.1121134020619 1606,868 C 1715.8917525773195,880.8878865979381 1853.1119293078057,940.6822533136966 1910,958 C 1966.8880706921943,975.3177466863034 1943.4440353460973,950.1588733431518 1920,925 C 1920,925 1920,1080 1920,1080 Z" fill="#0f2f33" opacity="0.5142857142857142"/><path d="M 0,1080 C 0,1080 0,1079 0,1079 C 115.89506627393226,1087.1807805596466 231.79013254786452,1095.3615611192931 319,1090 C 406.2098674521355,1084.6384388807069 464.73453608247416,1065.7345360824743 555,1055 C 645.2654639175258,1044.2654639175257 767.2717231222384,1041.7002945508102 865,1050 C 962.7282768777616,1058.2997054491898 1036.1785714285713,1077.4642857142856 1114,1069 C 1191.8214285714287,1060.5357142857144 1274.013991163476,1024.4425625920471 1362,1022 C 1449.986008836524,1019.557437407953 1543.7654639175255,1050.765463917526 1649,1075 C 1754.2345360824745,1099.234536082474 1870.9241531664213,1116.4955817378498 1918,1116 C 1965.0758468335787,1115.5044182621502 1942.5379234167895,1097.2522091310752 1920,1079 C 1920,1079 1920,1080 1920,1080 Z" fill="#0f2f33" opacity="0.6"/></svg>